<svg viewBox="0 0 32 32" xmlns="http://www.w3.org/2000/svg"><g style="display:none;"><g fill="#00ADEE"><path opacity=".19" d="M30 30L2 30 2 2l28 0"/><path opacity=".11" d="M27 27L5 27 5 5l22 0"/><path opacity=".2" d="M8 8h16v16H8Z"/></g></g><g fill-rule="evenodd"><path d="M24 19H9c-1.104 0-2 .89-2 2 0 1.1.89 2 2 2h15c1.1 0 2-.9 2-2 0-1.11-.9-2-2-2Z"/><path d="M24 13H9c-1.104 0-2 .89-2 2 0 1.1.89 2 2 2h15c1.1 0 2-.9 2-2 0-1.11-.9-2-2-2Z"/><path d="M24 7H9c-1.104 0-2 .89-2 2 0 1.1.89 2 2 2h15c1.1 0 2-.9 2-2 0-1.11-.9-2-2-2Z"/></g></svg>